<svg xmlns="http://www.w3.org/2000/svg" width="112" height="112" fill="none">
  <g clip-path="url(#a)">
    <path fill="#fff" d="M80.043 41.47h-7.779c-.864 0-1.728-.393-2.357-1.02l-3.143-3.532c-.943-1.02-2.435-1.098-3.535-.235l-.236.235-2.672 3.06c-.864 1.02-2.2 1.57-3.535 1.57H14.279A45.815 45.815 0 0 0 12 52.377h40.229c.707 0 1.414-.314 1.885-.785l3.772-3.923c.471-.471 1.1-.785 1.807-.785h.157c.707 0 1.414.314 1.886.863l3.143 3.531c.628.707 1.492 1.099 2.357 1.099H100a45.815 45.815 0 0 0-2.279-10.83H80.043v-.078ZM54.27 63.126l-3.142-3.53c-.943-1.02-2.436-1.1-3.536-.236l-.236.235-2.75 3.06c-.864 1.02-2.121 1.57-3.457 1.57H12.629c.707 3.767 1.964 7.455 3.614 10.986h20.036c.707 0 1.335-.314 1.885-.785l3.772-3.923c.471-.471 1.1-.785 1.807-.785h.157c.707 0 1.414.314 1.886.863l3.143 3.531c.628.707 1.492 1.099 2.357 1.099h44.471c1.65-3.453 2.907-7.14 3.614-10.986H56.63c-.943 0-1.808-.392-2.358-1.099Zm15.4-34.213 3.772-3.924c.471-.47 1.1-.784 1.807-.784h.157c.707 0 1.414.314 1.886.785l3.143 3.53c.628.707 1.493 1.02 2.357 1.02h8.486C76.507 10.082 48.77 6.237 29.207 20.91a44.996 44.996 0 0 0-8.643 8.632h47.222c.785.157 1.414-.157 1.885-.628ZM39.264 86.041c-.943 0-1.807-.392-2.357-1.02l-3.143-3.531a2.495 2.495 0 0 0-3.535-.157l-.158.157-2.75 3.06c-.864 1.02-2.121 1.57-3.457 1.57h-.157c16.579 17.734 44.629 18.597 62.464 1.883.708-.628 1.336-1.334 2.043-2.04h-48.95v.078Z"/>
    <path stroke="url(#b)" stroke-width="2" d="M111 56c0 30.376-24.624 55-55 55S1 86.376 1 56 25.624 1 56 1s55 24.624 55 55Z"/>
  </g>
  <defs>
    <linearGradient id="b" x1="0" x2="119.396" y1="0" y2="106.717" gradientUnits="userSpaceOnUse">
      <stop stop-color="#61DD89"/>
      <stop offset="1" stop-color="#05EEEF"/>
    </linearGradient>
    <clipPath id="a">
      <path fill="#fff" d="M0 0h112v112H0z"/>
    </clipPath>
  </defs>
</svg>